<svg width="1121" height="429" viewBox="0 0 1121 429" fill="none" xmlns="http://www.w3.org/2000/svg">
<g filter="url(#filter0_d_4029_14)">
<path d="M32.1623 85.5593C32.8155 86.0725 32.9301 87.0147 32.4188 87.6635C31.9074 88.3123 30.9633 88.4227 30.3101 87.9096C28.97 86.857 27.7614 85.6735 26.7254 84.3225L26.2925 83.7333C25.328 82.364 24.6511 80.815 24.21 79.1494L24.1778 78.9993C24.0585 78.2489 24.5266 77.5177 25.2786 77.3232C26.0805 77.1161 26.9024 77.5976 27.1145 78.3982L27.2597 78.9063C27.6175 80.0748 28.111 81.1152 28.748 82.0195L29.1079 82.5098C29.9712 83.6357 30.9948 84.6423 32.1623 85.5593ZM28.5348 61.3737C27.6782 64.3513 27.0521 67.2523 26.747 69.9636C26.6545 70.7851 25.9114 71.3734 25.0871 71.2773C24.2627 71.181 23.6686 70.4362 23.761 69.6146C24.0894 66.6964 24.7569 63.6268 25.6468 60.5337L28.5348 61.3737ZM27.5044 59.5165C28.3019 59.7483 28.7633 60.5796 28.5348 61.3737L25.6468 60.5337C25.8753 59.7399 26.707 59.2848 27.5044 59.5165ZM34.3474 42.8189C35.048 43.159 35.3685 43.9684 35.1091 44.6808L35.0488 44.8218L34.5773 45.8052C33.4813 48.1152 32.4163 50.5293 31.4391 52.9811C31.1332 53.7485 30.2601 54.1204 29.4889 53.8115C28.718 53.5025 28.3414 52.6299 28.6472 51.8625C29.6505 49.3453 30.7411 46.873 31.8612 44.5124L32.3423 43.5083L32.4164 43.3738C32.8144 42.7288 33.6468 42.4791 34.3474 42.8189ZM51.3307 93.8637C52.1197 94.1235 52.5514 94.9711 52.2948 95.7565C52.0382 96.5414 51.1911 96.9674 50.4025 96.7081C46.8857 95.5501 43.381 94.4359 40.1531 93.1766C39.3793 92.8748 38.9937 92.0057 39.2923 91.2357C39.5911 90.4657 40.4607 90.0856 41.2345 90.3871C44.3653 91.6086 47.7647 92.6896 51.3307 93.8637ZM39.1976 36.916C38.7901 37.6343 37.874 37.8846 37.1515 37.4748C36.4291 37.0648 36.1735 36.1501 36.5808 35.4317L39.1976 36.916ZM40.9779 31.0223C41.6396 31.433 41.8739 32.2709 41.5416 32.9522L41.4671 33.0857L40.9231 33.9721C40.3706 34.8831 39.7922 35.8683 39.1976 36.916L36.5808 35.4317C37.189 34.3597 37.7822 33.3487 38.3506 32.4115L38.91 31.4999L38.9976 31.3741C39.4609 30.7739 40.316 30.6116 40.9779 31.0223ZM71.4485 102.791C72.0367 103.276 72.1743 104.134 71.7434 104.778C71.2838 105.464 70.3512 105.647 69.6605 105.185L69.1145 104.826C66.3699 103.052 63.4328 101.597 60.4053 100.33C59.6389 100.01 59.2748 99.1312 59.5925 98.3686C59.9103 97.6062 60.7894 97.2474 61.5557 97.5681C64.9062 98.9701 68.2178 100.622 71.3248 102.699L71.4485 102.791ZM93.401 179.372C94.0337 179.91 94.1118 180.855 93.5755 181.484C93.039 182.112 92.0916 182.185 91.4588 181.647C88.3937 179.04 86.3271 175.979 84.9761 172.617L84.926 172.472C84.7151 171.741 85.088 170.958 85.8099 170.673C86.5797 170.369 87.4543 170.746 87.7634 171.515L87.992 172.063C89.1729 174.788 90.9026 177.247 93.401 179.372ZM84.5454 149.9C85.373 149.959 85.9987 150.676 85.9431 151.501C85.7036 155.054 85.5807 158.498 85.779 161.767C85.8291 162.593 85.1981 163.299 84.37 163.345C83.5421 163.39 82.8307 162.759 82.7804 161.933C82.5707 158.476 82.7027 154.885 82.9453 151.285C83.0009 150.46 83.7177 149.84 84.5454 149.9ZM85.4587 129.009C86.2875 128.978 86.9888 129.623 87.0245 130.45C87.1748 133.928 87.013 137.51 86.7599 141.076C86.7013 141.901 85.9827 142.518 85.1552 142.456C84.3278 142.393 83.705 141.674 83.7634 140.85C84.0136 137.323 84.1659 133.873 84.0229 130.563C83.9873 129.737 84.6299 129.041 85.4587 129.009ZM85.2047 119.746C85.4698 120.53 85.0478 121.378 84.2622 121.639C83.4763 121.899 82.6234 121.474 82.3579 120.689C81.8955 119.321 81.3228 118.008 80.6203 116.755L80.3117 116.222C79.3995 114.7 78.4041 113.306 77.3389 112.025C76.8081 111.386 76.8945 110.442 77.5321 109.916C78.1696 109.39 79.1172 109.481 79.648 110.119C80.8109 111.518 81.8953 113.038 82.8879 114.695L83.241 115.303C84.0416 116.731 84.6878 118.216 85.2047 119.746ZM101.017 187.005C100.236 186.72 99.8315 185.86 100.113 185.083C100.394 184.306 101.255 183.907 102.035 184.191L101.017 187.005ZM111.406 189.935C110.144 189.572 108.861 189.224 107.556 188.893L106.244 188.568C104.366 188.113 102.626 187.591 101.017 187.005L102.035 184.191C103.529 184.736 105.16 185.227 106.939 185.658L108.283 185.99C109.619 186.329 110.933 186.685 112.225 187.057L111.406 189.935ZM112.225 187.057C113.023 187.286 113.487 188.117 113.261 188.912C113.035 189.706 112.204 190.165 111.406 189.935L112.225 187.057ZM121.532 193.291C120.754 193 120.357 192.136 120.645 191.362C120.933 190.588 121.797 190.196 122.575 190.487L121.532 193.291ZM132.773 194.713C133.433 195.093 133.713 195.917 133.397 196.624C133.06 197.378 132.171 197.713 131.413 197.373L130.229 196.845C127.446 195.619 124.552 194.422 121.532 193.291L122.575 190.487C126.098 191.806 129.445 193.21 132.636 194.643L132.773 194.713ZM141.102 201.981C140.358 201.612 140.052 200.713 140.418 199.972C140.785 199.232 141.686 198.931 142.43 199.301L141.102 201.981ZM152.21 204.207C152.856 204.611 153.105 205.445 152.763 206.139C152.397 206.88 151.497 207.182 150.753 206.814L148.433 205.66C146.072 204.477 143.602 203.222 141.102 201.981L142.43 199.301C145.861 201.004 148.989 202.607 152.075 204.131L152.21 204.207ZM171.781 211.441C172.602 211.559 173.175 212.318 173.061 213.136C172.947 213.955 172.188 214.524 171.366 214.406C167.887 213.906 164.343 212.806 160.679 211.343L160.539 211.279C159.863 210.927 159.549 210.115 159.835 209.395C160.14 208.628 161.012 208.255 161.783 208.563L163.099 209.074C166.143 210.219 169.016 211.043 171.781 211.441ZM187.879 211.216C186.373 212.11 184.862 212.821 183.338 213.36L182.684 213.58L182.536 213.619C181.792 213.778 181.032 213.352 180.79 212.614C180.547 211.875 180.91 211.087 181.606 210.783L181.749 210.728L182.319 210.535C183.651 210.064 184.987 209.439 186.334 208.64L187.879 211.216ZM188.395 209.164C188.822 209.876 188.59 210.794 187.879 211.216L186.334 208.64C187.045 208.218 187.968 208.453 188.395 209.164Z" fill="white" fill-opacity="0.6" shape-rendering="crispEdges"/>
<path d="M615.176 187.788C614.532 188.312 614.434 189.256 614.956 189.896C615.479 190.536 616.425 190.63 617.069 190.105C618.39 189.029 619.578 187.825 620.59 186.456L621.013 185.859C621.953 184.474 622.603 182.913 623.015 181.24L623.045 181.089C623.151 180.337 622.67 179.614 621.915 179.433C621.109 179.24 620.296 179.735 620.098 180.54L619.962 181.05C619.624 182.225 619.149 183.273 618.528 184.189L618.177 184.685C617.333 185.826 616.327 186.85 615.176 187.788ZM618.381 163.542C619.289 166.505 619.966 169.394 620.318 172.1C620.425 172.92 621.178 173.495 622.001 173.384C622.823 173.274 623.404 172.519 623.298 171.699C622.918 168.787 622.197 165.729 621.254 162.652L618.381 163.542ZM619.379 161.667C618.585 161.913 618.138 162.752 618.381 163.542L621.254 162.652C621.011 161.862 620.172 161.422 619.379 161.667ZM612.245 145.092C611.551 145.444 611.244 146.259 611.516 146.967L611.579 147.107L612.067 148.082C613.204 150.372 614.311 152.767 615.33 155.202C615.65 155.964 616.529 156.32 617.295 155.998C618.06 155.676 618.422 154.797 618.102 154.035C617.055 151.535 615.922 149.082 614.761 146.742L614.262 145.746L614.186 145.613C613.776 144.975 612.94 144.74 612.245 145.092ZM596.155 196.425C595.371 196.699 594.954 197.554 595.224 198.335C595.495 199.115 596.349 199.526 597.133 199.253C600.629 198.034 604.114 196.859 607.319 195.543C608.088 195.228 608.458 194.352 608.146 193.588C607.834 192.823 606.958 192.458 606.189 192.773C603.08 194.049 599.7 195.189 596.155 196.425ZM607.293 139.275C607.713 139.986 608.633 140.22 609.348 139.798C610.063 139.375 610.303 138.456 609.883 137.745L607.293 139.275ZM605.41 133.413C604.755 133.835 604.536 134.677 604.88 135.352L604.957 135.484L605.516 136.361C606.084 137.262 606.68 138.237 607.293 139.275L609.883 137.745C609.256 136.684 608.646 135.683 608.061 134.756L607.486 133.854L607.396 133.73C606.922 133.138 606.064 132.991 605.41 133.413ZM576.196 205.702C575.617 206.198 575.494 207.058 575.936 207.694C576.408 208.372 577.343 208.538 578.026 208.065L578.566 207.696C581.279 205.874 584.19 204.369 587.195 203.049C587.956 202.715 588.304 201.831 587.973 201.074C587.642 200.317 586.757 199.974 585.997 200.308C582.671 201.768 579.389 203.477 576.318 205.608L576.196 205.702ZM555.584 282.655C554.961 283.204 554.899 284.15 555.446 284.769C555.994 285.388 556.942 285.445 557.565 284.896C560.585 282.236 562.597 279.139 563.89 275.754L563.937 275.608C564.135 274.874 563.749 274.097 563.022 273.825C562.247 273.534 561.379 273.926 561.083 274.701L560.864 275.253C559.731 277.997 558.045 280.487 555.584 282.655ZM563.924 253.032C563.097 253.106 562.484 253.834 562.554 254.658C562.856 258.206 563.039 261.647 562.897 264.919C562.862 265.746 563.505 266.441 564.334 266.472C565.162 266.504 565.863 265.859 565.898 265.033C566.048 261.573 565.853 257.985 565.548 254.39C565.478 253.566 564.75 252.958 563.924 253.032ZM562.646 232.161C561.817 232.144 561.127 232.802 561.106 233.629C561.016 237.109 561.24 240.687 561.556 244.249C561.628 245.072 562.358 245.677 563.184 245.6C564.01 245.523 564.62 244.794 564.548 243.97C564.236 240.449 564.023 237.002 564.109 233.69C564.13 232.863 563.475 232.178 562.646 232.161ZM562.738 222.894C562.487 223.684 562.924 224.524 563.714 224.771C564.504 225.018 565.349 224.578 565.601 223.789C566.039 222.413 566.589 221.089 567.27 219.825L567.569 219.286C568.454 217.748 569.425 216.337 570.468 215.038C570.988 214.39 570.885 213.447 570.238 212.932C569.592 212.418 568.646 212.525 568.126 213.173C566.988 214.591 565.93 216.131 564.966 217.804L564.624 218.418C563.849 219.86 563.228 221.356 562.738 222.894ZM548.102 290.419C548.878 290.121 549.268 289.254 548.973 288.482C548.678 287.711 547.81 287.327 547.035 287.624L548.102 290.419ZM537.766 293.531C539.021 293.146 540.298 292.775 541.597 292.421L542.903 292.074C544.773 291.586 546.503 291.034 548.102 290.419L547.035 287.624C545.551 288.194 543.929 288.714 542.157 289.176L540.82 289.532C539.49 289.894 538.182 290.273 536.896 290.667L537.766 293.531ZM536.896 290.667C536.102 290.911 535.653 291.749 535.893 292.54C536.133 293.33 536.972 293.774 537.766 293.531L536.896 290.667ZM527.7 297.063C528.473 296.758 528.855 295.888 528.553 295.118C528.252 294.35 527.381 293.973 526.608 294.278L527.7 297.063ZM516.486 298.68C515.832 299.072 515.566 299.901 515.895 300.602C516.245 301.35 517.14 301.67 517.891 301.317L519.067 300.768C521.827 299.493 524.7 298.246 527.7 297.063L526.608 294.278C523.109 295.658 519.786 297.12 516.621 298.608L516.486 298.68ZM508.285 306.093C509.022 305.71 509.313 304.806 508.933 304.073C508.554 303.339 507.648 303.054 506.91 303.436L508.285 306.093ZM497.218 308.512C496.579 308.928 496.344 309.765 496.698 310.454C497.076 311.188 497.982 311.474 498.72 311.093L501.019 309.899C503.358 308.676 505.807 307.378 508.285 306.093L506.91 303.436C503.509 305.199 500.41 306.856 497.351 308.434L497.218 308.512ZM477.776 316.086C476.956 316.219 476.397 316.988 476.525 317.804C476.654 318.621 477.423 319.176 478.242 319.044C481.712 318.483 485.236 317.322 488.874 315.795L489.013 315.729C489.683 315.364 489.983 314.547 489.684 313.833C489.366 313.071 488.487 312.714 487.721 313.035L486.415 313.568C483.391 314.767 480.533 315.641 477.776 316.086ZM461.676 316.143C463.197 317.011 464.721 317.694 466.254 318.207L466.911 318.416L467.06 318.452C467.806 318.598 468.559 318.159 468.789 317.416C469.018 316.674 468.642 315.892 467.94 315.6L467.796 315.548L467.223 315.365C465.883 314.918 464.537 314.316 463.176 313.54L461.676 316.143ZM461.124 314.1C460.71 314.819 460.957 315.733 461.676 316.143L463.176 313.54C462.458 313.131 461.539 313.382 461.124 314.1Z" fill="white" fill-opacity="0.6" shape-rendering="crispEdges"/>
<path d="M595.328 50.2961L596.308 49.4713C598.638 47.5537 601.265 45.6891 604.071 43.9523C604.776 43.5162 604.99 42.5934 604.551 41.8914C604.111 41.1898 603.183 40.9742 602.479 41.4103C599.572 43.2092 596.834 45.1514 594.388 47.1645L593.358 48.031L593.247 48.1366C592.724 48.6877 592.697 49.555 593.207 50.1414C593.717 50.7276 594.583 50.8249 595.206 50.3899L595.328 50.2961ZM623.813 35.1762C624.614 34.9604 625.087 34.139 624.869 33.3415C624.65 32.5438 623.823 32.0721 623.022 32.2878C619.535 33.2267 615.938 34.5451 612.406 36.1335C611.65 36.4735 611.315 37.3596 611.658 38.1127C612.002 38.8658 612.893 39.2008 613.649 38.8609C617.057 37.3283 620.502 36.0676 623.813 35.1762ZM584.716 63.8865C585.485 64.0102 586.211 63.5309 586.407 62.7982L586.438 62.6485L586.484 62.3902C586.703 61.2611 587.183 60.0356 587.921 58.7339L588.28 58.128L588.354 57.9935C588.685 57.3111 588.449 56.4759 587.785 56.0692C587.122 55.6626 586.267 55.8291 585.805 56.4309L585.717 56.5572L585.305 57.2536C584.446 58.7666 583.825 60.2993 583.531 61.8201L583.469 62.1707L583.452 62.3232C583.409 63.0802 583.947 63.7628 584.716 63.8865ZM644.429 36.4127C645.163 36.6197 645.948 36.2442 646.233 35.5243C646.538 34.7562 646.159 33.8866 645.387 33.5817L644.085 33.0743C643.222 32.7425 642.367 32.424 641.522 32.1232L640.262 31.686C638.463 31.0784 636.477 30.7762 634.38 30.7203C633.549 30.6981 632.859 31.3506 632.839 32.1766C632.818 33.0026 633.475 33.6898 634.305 33.712C636.171 33.7618 637.848 34.0293 639.3 34.5198L640.516 34.9413C641.741 35.3773 642.996 35.8549 644.283 36.3629L644.429 36.4127ZM664.604 44.2767C665.349 44.4393 666.11 44.0177 666.352 43.282C666.609 42.4969 666.178 41.651 665.389 41.3929L664.102 40.964C661.112 39.9451 658.206 38.8165 655.382 37.672L655.236 37.6209C654.504 37.4074 653.716 37.7751 653.424 38.4923C653.112 39.2574 653.483 40.1306 654.252 40.4426L656.722 41.4292C659.22 42.4103 661.8 43.3674 664.456 44.2356L664.604 44.2767ZM686.072 45.0851C682.502 45.0787 679.02 44.7014 675.627 44.0662L675.474 44.0468C674.714 43.9826 674.015 44.4996 673.873 45.261C673.721 46.0729 674.26 46.8548 675.077 47.0076L676.413 47.244C679.544 47.7654 682.765 48.072 686.072 48.078L686.072 45.0851ZM752.796 3.58911C753.627 3.5995 754.307 2.93807 754.316 2.11181C754.325 1.28561 753.659 0.607296 752.828 0.596839C748.804 0.546174 745.235 1.49569 742.01 3.14351L741.876 3.22038C741.238 3.63293 741.006 4.46822 741.362 5.15746C741.743 5.89275 742.649 6.18279 743.387 5.80566L743.92 5.54306C746.598 4.26516 749.516 3.5478 752.796 3.58911ZM726.783 20.0071C727.405 20.4738 728.272 20.3885 728.789 19.8327L728.889 19.7151L729.695 18.6578C731.311 16.5599 732.944 14.5649 734.641 12.7498L735.495 11.8581L735.597 11.7423C736.071 11.1496 736.025 10.2839 735.468 9.74224C734.91 9.20046 734.039 9.17521 733.454 9.66081L733.341 9.76455L732.889 10.2319C730.935 12.2725 729.091 14.5185 727.305 16.8374L726.485 17.9123L726.398 18.0388C726.004 18.6871 726.16 19.5403 726.783 20.0071ZM686.072 48.078C686.902 48.0793 687.576 47.4105 687.576 46.5843C687.576 45.7581 686.902 45.0869 686.072 45.0851L686.072 48.078ZM715.903 36.3202C717.998 34.1084 719.964 31.6796 721.861 29.1917L722.67 28.1231L722.756 27.9958C723.147 27.346 722.988 26.4926 722.363 26.0281C721.739 25.5638 720.873 25.6525 720.357 26.2103L720.259 26.3282L719.462 27.3822C717.598 29.8267 715.705 32.1609 713.712 34.2653L715.903 36.3202ZM707.637 43.123C708.251 42.675 708.436 41.8273 708.041 41.1591C707.619 40.4465 706.696 40.2079 705.981 40.6262L705.444 40.9315C704.184 41.6275 702.875 42.2067 701.507 42.6523C699.803 43.207 698.12 43.6567 696.455 44.0111C695.644 44.1839 695.127 44.9792 695.303 45.7873C695.478 46.5953 696.278 47.1104 697.09 46.9376C698.857 46.5613 700.643 46.0847 702.448 45.4972C704.235 44.9153 705.917 44.1383 707.509 43.2071L707.637 43.123ZM713.777 36.3806C714.382 36.9478 715.334 36.9208 715.903 36.3202L713.712 34.2653C713.143 34.866 713.172 35.8133 713.777 36.3806ZM772.035 10.1685C772.787 10.5197 773.682 10.1972 774.034 9.44923C774.385 8.70134 774.061 7.81029 773.308 7.45902C772.117 6.90286 770.92 6.32248 769.718 5.71437L768.515 5.09604C766.801 4.20527 765.147 3.45651 763.549 2.84099L763.403 2.79339C762.668 2.59217 761.886 2.97354 761.606 3.69579C761.307 4.46626 761.693 5.3329 762.468 5.63154L763.027 5.85238C764.34 6.38102 765.706 7.01012 767.127 7.74852L768.36 8.38097C769.591 9.00373 770.816 9.59931 772.035 10.1685ZM783.154 11.5852C782.377 11.2941 781.511 11.6842 781.219 12.457C780.928 13.2303 781.322 14.0936 782.1 14.3851L783.154 11.5852ZM792.421 17.8654C793.216 18.1069 794.056 17.6624 794.297 16.8722C794.538 16.082 794.089 15.2458 793.295 15.0042C789.996 14.0018 786.609 12.8799 783.154 11.5852L782.1 14.3851C785.625 15.7062 789.073 16.848 792.421 17.8654ZM813.327 23.4901C814.13 23.7021 814.952 23.2263 815.164 22.4278C815.375 21.6291 814.896 20.8098 814.092 20.5978C810.815 19.7324 807.237 18.8415 803.633 17.8981L803.482 17.8657C802.729 17.748 801.995 18.2147 801.799 18.9637C801.589 19.7627 802.07 20.581 802.873 20.7915L805.603 21.4991C808.284 22.1884 810.83 22.8307 813.327 23.4901ZM833 30.9346C833.696 31.3853 834.627 31.1901 835.079 30.4979C835.531 29.8054 835.332 28.878 834.636 28.4271C831.681 26.516 828.285 25.0132 824.56 23.7078L824.412 23.664C823.671 23.4856 822.9 23.8918 822.643 24.6224C822.369 25.4016 822.782 26.2558 823.566 26.5304L824.893 27.0106C827.943 28.1481 830.652 29.416 833 30.9346ZM844.048 43.5745C844.787 43.3334 845.209 42.5754 845.045 41.8345L845.005 41.6873L844.761 40.9814C844.174 39.3556 843.464 37.8629 842.633 36.4892C842.205 35.7805 841.28 35.5509 840.569 35.9758C839.858 36.4007 839.628 37.3196 840.056 38.0282C840.78 39.2257 841.408 40.5389 841.931 41.9881L842.149 42.6174L842.204 42.7613C842.515 43.4543 843.308 43.8156 844.048 43.5745Z" fill="white" fill-opacity="0.6" shape-rendering="crispEdges"/>
<path d="M1080.95 111.063C1080.13 111.236 1079.62 112.032 1079.79 112.84C1079.96 113.648 1080.76 114.162 1081.57 113.989C1083.24 113.633 1084.85 113.102 1086.37 112.345L1087.02 112.006C1088.64 111.116 1089.99 109.804 1091.12 108.219C1091.6 107.545 1091.44 106.612 1090.76 106.134C1090.08 105.657 1089.14 105.818 1088.66 106.492C1087.74 107.795 1086.7 108.761 1085.56 109.387L1085.03 109.668C1083.76 110.299 1082.4 110.753 1080.95 111.063ZM1095.4 87.0242C1094.62 86.9512 1093.93 87.4772 1093.78 88.2209L1093.76 88.3724L1093.63 89.6421C1093.35 92.165 1092.97 94.5794 1092.47 96.8138L1092.22 97.9146L1092.19 98.0659C1092.08 98.8168 1092.56 99.5396 1093.32 99.7239C1094.07 99.9081 1094.84 99.4885 1095.09 98.774L1095.14 98.6272L1095.41 97.459C1095.94 95.0958 1096.33 92.5705 1096.61 89.9644L1096.75 88.655L1096.76 88.5012C1096.75 87.7432 1096.17 87.0973 1095.4 87.0242ZM1059.94 110.071C1059.18 110.043 1058.5 110.593 1058.39 111.36C1058.28 112.178 1058.85 112.934 1059.68 113.048L1062.42 113.431C1065.15 113.811 1067.84 114.169 1070.43 114.386L1070.58 114.391C1071.34 114.378 1071.99 113.793 1072.05 113.021C1072.12 112.198 1071.51 111.474 1070.68 111.404L1069.42 111.288C1066.45 110.993 1063.35 110.535 1060.09 110.085L1059.94 110.071ZM1095.57 67.2552C1094.79 67.2867 1094.18 67.9005 1094.13 68.6573L1094.13 68.8107L1094.21 71.2043C1094.27 73.2216 1094.29 75.2887 1094.28 77.3692L1094.26 78.6186L1094.27 78.7715C1094.34 79.5269 1094.97 80.1243 1095.75 80.1351C1096.52 80.146 1097.17 79.566 1097.26 78.8126L1097.27 78.6599L1097.29 77.3877C1097.3 75.2687 1097.27 73.1666 1097.22 71.1187L1097.13 68.6899L1097.12 68.5369C1097.01 67.7864 1096.35 67.2241 1095.57 67.2552ZM982.058 185.691C981.278 185.975 980.877 186.835 981.162 187.611C981.447 188.386 982.31 188.784 983.09 188.5C986.478 187.266 989.367 185.275 991.864 182.755C992.447 182.166 992.441 181.219 991.849 180.639C991.258 180.059 990.305 180.067 989.722 180.655C987.489 182.909 984.967 184.631 982.058 185.691ZM1001.39 163.402C1000.62 163.098 999.744 163.474 999.438 164.242C998.343 166.985 997.171 169.592 995.881 171.996L995.321 173.014L995.252 173.152C994.948 173.847 995.217 174.672 995.896 175.051C996.574 175.43 997.423 175.228 997.862 174.608L997.943 174.478L998.534 173.404C999.892 170.873 1001.11 168.159 1002.23 165.344C1002.54 164.576 1002.16 163.707 1001.39 163.402ZM1094.41 52.4803C1093.64 52.5605 1093.06 53.2115 1093.06 53.9696L1093.07 54.123L1093.29 56.4192L1093.52 59.0051L1093.54 59.1576C1093.68 59.9027 1094.37 60.4366 1095.15 60.3727C1095.92 60.3086 1096.51 59.6689 1096.53 58.9108L1096.52 58.7571L1096.29 56.1396L1096.06 53.8139L1096.04 53.6624C1095.88 52.9199 1095.19 52.4003 1094.41 52.4803ZM1038.67 112.183C1042.12 111.72 1045.61 111.691 1049.11 111.899C1049.94 111.949 1050.65 111.32 1050.7 110.495C1050.75 109.671 1050.12 108.962 1049.29 108.913C1045.67 108.697 1041.97 108.722 1038.27 109.218L1038.67 112.183ZM1007.66 144.636C1006.92 144.401 1006.13 144.77 1005.83 145.466L1005.77 145.609L1004.27 150.32C1003.77 151.889 1003.27 153.457 1002.75 155.016C1002.49 155.801 1002.92 156.646 1003.71 156.904C1004.5 157.162 1005.35 156.735 1005.61 155.95C1006.13 154.382 1006.64 152.8 1007.14 151.223L1008.64 146.515L1008.68 146.367C1008.83 145.625 1008.4 144.87 1007.66 144.636ZM963.676 185.147C962.919 185.06 962.203 185.556 962.035 186.312C961.856 187.119 962.37 187.918 963.181 188.095L967.541 189.054C969.339 189.452 971.057 189.706 972.701 189.824L972.855 189.827C973.617 189.804 974.253 189.211 974.31 188.439C974.37 187.615 973.748 186.899 972.919 186.84L972.359 186.794C971.04 186.673 969.655 186.456 968.197 186.133L963.828 185.172L963.676 185.147ZM1038.27 109.218C1037.44 109.329 1036.87 110.082 1036.98 110.901C1037.09 111.72 1037.84 112.294 1038.67 112.183L1038.27 109.218ZM1012.95 126.773L1012.88 126.906L1012.34 127.991C1011.29 130.186 1010.32 132.527 1009.41 134.957L1008.95 136.178L1008.91 136.324C1008.72 137.059 1009.12 137.83 1009.85 138.094C1010.58 138.358 1011.39 138.022 1011.72 137.339L1011.78 137.198L1012.22 136.001C1013.12 133.629 1014.05 131.374 1015.05 129.28L1015.56 128.247L1015.62 128.106C1015.9 127.398 1015.59 126.586 1014.89 126.239C1014.2 125.892 1013.36 126.133 1012.95 126.773ZM1018.47 118.474C1018.02 119.081 1018.09 119.946 1018.66 120.47C1019.27 121.029 1020.22 120.989 1020.78 120.381L1021.19 119.95C1022.16 118.961 1023.18 118.11 1024.26 117.406C1025.75 116.44 1027.25 115.625 1028.77 114.944C1029.53 114.604 1029.86 113.718 1029.52 112.965C1029.18 112.212 1028.29 111.878 1027.54 112.217C1025.88 112.962 1024.23 113.85 1022.62 114.902C1021.14 115.86 1019.8 117.026 1018.57 118.356L1018.47 118.474ZM954.456 186.201C955.268 186.376 956.069 185.864 956.246 185.057C956.424 184.25 955.91 183.453 955.099 183.277L954.456 186.201ZM946.388 181.371C945.578 181.19 944.774 181.698 944.592 182.504C944.41 183.311 944.92 184.111 945.73 184.291C948.557 184.919 951.467 185.553 954.456 186.201L955.099 183.277C952.11 182.629 949.207 181.997 946.388 181.371ZM928.948 177.179C928.196 177.056 927.457 177.518 927.254 178.266C927.05 179.013 927.453 179.782 928.165 180.053L928.311 180.1C931.105 180.852 934.006 181.577 937.011 182.292C937.819 182.485 938.63 181.989 938.824 181.186C939.018 180.382 938.521 179.575 937.713 179.383C934.729 178.672 931.858 177.954 929.099 177.212L928.948 177.179ZM912.325 171.725C911.557 171.41 910.678 171.774 910.361 172.537C910.044 173.301 910.409 174.176 911.177 174.491C913.866 175.594 916.703 176.612 919.681 177.571C920.471 177.825 921.319 177.394 921.576 176.608C921.832 175.822 921.399 174.978 920.609 174.724C917.691 173.785 914.929 172.793 912.325 171.725ZM902.973 170.583C903.698 170.986 904.614 170.729 905.02 170.007C905.426 169.286 905.167 168.375 904.443 167.971L902.973 170.583ZM895.124 163.409C894.603 164.053 894.705 164.995 895.352 165.513L896.238 166.205C898.328 167.8 900.575 169.25 902.973 170.583L904.443 167.971C901.831 166.519 899.43 164.935 897.238 163.181L897.114 163.091C896.475 162.678 895.612 162.805 895.124 163.409ZM886.492 153.287C885.84 153.711 885.628 154.553 885.979 155.226L886.057 155.358L886.38 155.842C887.139 156.965 887.942 158.039 888.789 159.068C889.316 159.706 890.263 159.799 890.906 159.275C891.548 158.751 891.643 157.809 891.117 157.17C890.442 156.35 889.796 155.499 889.18 154.614L888.573 153.719L888.483 153.595C888.004 153.006 887.144 152.863 886.492 153.287Z" fill="white" fill-opacity="0.6" shape-rendering="crispEdges"/>
<path d="M265.474 298.196C266.148 298.542 266.462 299.354 266.178 300.08C265.875 300.854 265.007 301.238 264.238 300.938L263.681 300.709C262.487 300.194 261.386 299.554 260.424 298.746L260.205 298.556C258.675 297.199 257.847 295.363 257.501 293.336C257.362 292.519 257.909 291.739 258.723 291.595C259.538 291.451 260.311 291.996 260.451 292.814C260.713 294.352 261.295 295.501 262.193 296.298L262.515 296.568C263.291 297.186 264.23 297.703 265.334 298.134L265.474 298.196ZM264.201 272.47C264.906 272.791 265.24 273.594 264.995 274.316L264.938 274.46L264.424 275.61C263.246 278.3 262.217 281.023 261.481 283.608C261.253 284.407 260.424 284.872 259.63 284.647C258.836 284.422 258.376 283.592 258.604 282.793C259.387 280.044 260.469 277.188 261.687 274.407L262.218 273.219L262.289 273.082C262.673 272.424 263.497 272.149 264.201 272.47ZM281.567 300.369C282.316 300.49 282.862 301.164 282.813 301.941C282.76 302.77 282.049 303.402 281.224 303.353L279.065 303.226C276.914 303.098 274.798 302.96 272.797 302.75C271.975 302.664 271.382 301.924 271.472 301.098C271.562 300.273 272.301 299.674 273.122 299.759C275.706 300.031 278.493 300.178 281.415 300.352L281.567 300.369ZM309.265 364.031C310.08 363.895 310.849 364.448 310.981 365.267C311.545 368.78 312.614 371.714 314.357 373.928C314.869 374.577 314.757 375.523 314.108 376.04C313.459 376.557 312.518 376.45 312.007 375.8C309.841 373.05 308.638 369.572 308.026 365.762C307.894 364.943 308.449 364.168 309.265 364.031ZM271.564 259.393C272.215 259.812 272.43 260.656 272.084 261.336L272.008 261.47L271.401 262.429C270.781 263.422 270.126 264.515 269.456 265.684C269.043 266.405 268.127 266.656 267.411 266.244C266.696 265.832 266.452 264.914 266.865 264.193C267.553 262.993 268.227 261.868 268.867 260.841L269.494 259.849L269.584 259.724C270.058 259.127 270.914 258.973 271.564 259.393ZM310.52 355.395C310.491 356.225 309.799 356.877 308.973 356.853C308.147 356.828 307.501 356.135 307.529 355.305L310.52 355.395ZM309.977 343.691C310.747 343.771 311.317 344.425 311.312 345.187L311.303 345.341L311.041 347.902C310.796 350.453 310.605 352.967 310.52 355.395L307.529 355.305C307.617 352.797 307.813 350.217 308.063 347.626L308.328 345.032L308.352 344.88C308.509 344.134 309.207 343.611 309.977 343.691ZM298.314 302.682C299.106 302.915 299.556 303.749 299.321 304.546C299.085 305.343 298.252 305.801 297.46 305.568C294.946 304.829 292.257 304.354 289.489 304.024C288.669 303.927 288.086 303.179 288.188 302.354C288.289 301.53 289.036 300.94 289.856 301.038C292.724 301.38 295.588 301.88 298.314 302.682ZM331.739 378.682C332.564 378.648 333.258 379.293 333.288 380.123C333.317 380.953 332.671 381.652 331.845 381.686C330.189 381.754 328.505 381.796 326.795 381.81C324.838 381.827 323.049 381.667 321.419 381.338L321.271 381.301C320.547 381.076 320.099 380.331 320.255 379.568C320.422 378.754 321.214 378.226 322.023 378.389L322.557 378.489C323.822 378.707 325.226 378.817 326.784 378.804C328.462 378.789 330.114 378.748 331.739 378.682ZM311.877 323.391C312.651 323.415 313.267 324.026 313.317 324.786L313.319 324.94L313.266 326.161C313.161 328.216 312.978 330.363 312.754 332.561L312.469 335.218L312.444 335.371C312.283 336.117 311.584 336.636 310.814 336.553C310.044 336.47 309.476 335.813 309.485 335.051L309.494 334.897L309.777 332.265C309.998 330.101 310.176 328.011 310.277 326.026L310.327 324.848L310.341 324.694C310.445 323.939 311.103 323.367 311.877 323.391ZM309.72 309.311C311.005 310.685 311.859 312.425 312.414 314.368C312.641 315.165 312.181 315.999 311.387 316.232C310.593 316.464 309.765 316.007 309.537 315.21C309.073 313.583 308.409 312.311 307.535 311.377C306.64 310.421 305.659 309.585 304.604 308.854C303.925 308.383 303.757 307.447 304.229 306.763C304.7 306.079 305.633 305.905 306.311 306.376C307.53 307.22 308.673 308.192 309.72 309.311ZM341.908 380.935C341.086 381.025 340.351 380.429 340.265 379.603C340.18 378.778 340.777 378.036 341.598 377.946L341.908 380.935ZM351.382 376.508C352.196 376.357 352.973 376.896 353.12 377.713C353.266 378.529 352.725 379.314 351.911 379.465C348.698 380.061 345.365 380.556 341.908 380.935L341.598 377.946C344.982 377.574 348.241 377.09 351.382 376.508ZM372.362 372.293C372.636 373.076 372.225 373.936 371.446 374.214C368.359 375.318 365.139 376.33 361.778 377.232C360.978 377.447 360.161 376.97 359.951 376.168C359.742 375.366 360.22 374.542 361.019 374.328C364.301 373.447 367.443 372.459 370.455 371.382C371.235 371.103 372.089 371.511 372.362 372.293ZM390.513 363.846C390.881 364.529 390.666 365.375 390.039 365.806L389.908 365.886L388.823 366.475C386.639 367.647 384.375 368.785 382.026 369.875L380.844 370.417L380.701 370.473C379.981 370.714 379.183 370.374 378.868 369.664C378.553 368.954 378.832 368.127 379.491 367.745L379.628 367.675L380.781 367.147C383.076 366.082 385.288 364.97 387.423 363.824L388.484 363.249L388.622 363.181C389.323 362.884 390.144 363.163 390.513 363.846ZM402.824 357.909C401.798 358.612 400.752 359.313 399.685 360.01L398.611 360.705L398.478 360.781C397.799 361.125 396.961 360.906 396.547 360.25C396.132 359.595 396.288 358.737 396.884 358.263L397.009 358.173L398.064 357.49C399.111 356.806 400.138 356.117 401.147 355.427L402.824 357.909ZM403.225 355.82C403.687 356.505 403.508 357.441 402.824 357.909L401.147 355.427C401.831 354.958 402.761 355.134 403.225 355.82Z" fill="white" fill-opacity="0.6" shape-rendering="crispEdges"/>
</g>
<defs>
<filter id="filter0_d_4029_14" x="0.15333" y="0.59491" width="1120.73" height="428.413" filterUnits="userSpaceOnUse" color-interpolation-filters="sRGB">
<feFlood flood-opacity="0" result="BackgroundImageFix"/>
<feColorMatrix in="SourceAlpha" type="matrix" values="0 0 0 0 0 0 0 0 0 0 0 0 0 0 0 0 0 0 127 0" result="hardAlpha"/>
<feOffset dy="23.5982"/>
<feGaussianBlur stdDeviation="11.7991"/>
<feComposite in2="hardAlpha" operator="out"/>
<feColorMatrix type="matrix" values="0 0 0 0 0.215686 0 0 0 0 0.203922 0 0 0 0 0.662745 0 0 0 0.3 0"/>
<feBlend mode="normal" in2="BackgroundImageFix" result="effect1_dropShadow_4029_14"/>
<feBlend mode="normal" in="SourceGraphic" in2="effect1_dropShadow_4029_14" result="shape"/>
</filter>
</defs>
</svg>
